<svg width="27" height="27" viewBox="0 0 27 27" fill="none" xmlns="http://www.w3.org/2000/svg">
<path d="M17.2125 19.4625C17.4187 19.2563 17.5219 18.9938 17.5219 18.675C17.5219 18.3563 17.4187 18.0938 17.2125 17.8875L12.825 13.5L17.2125 9.11252C17.4187 8.90627 17.5219 8.64377 17.5219 8.32502C17.5219 8.00627 17.4187 7.74377 17.2125 7.53752C17.0062 7.33127 16.7437 7.22815 16.425 7.22815C16.1062 7.22815 15.8437 7.33127 15.6375 7.53752L10.4625 12.7125C10.35 12.825 10.2701 12.9469 10.2229 13.0781C10.1764 13.2094 10.1531 13.35 10.1531 13.5C10.1531 13.65 10.1764 13.7906 10.2229 13.9219C10.2701 14.0531 10.35 14.175 10.4625 14.2875L15.6375 19.4625C15.8437 19.6688 16.1062 19.7719 16.425 19.7719C16.7437 19.7719 17.0062 19.6688 17.2125 19.4625Z" fill="white"/>
</svg>
