<svg width="27" height="27" viewBox="0 0 27 27" fill="none" xmlns="http://www.w3.org/2000/svg">
<path d="M9.78749 19.4625C9.58124 19.2562 9.47812 18.9937 9.47812 18.675C9.47812 18.3562 9.58124 18.0937 9.78749 17.8875L14.175 13.5L9.78749 9.11249C9.58124 8.90624 9.47812 8.64374 9.47812 8.32499C9.47812 8.00624 9.58124 7.74374 9.78749 7.53749C9.99374 7.33124 10.2562 7.22812 10.575 7.22812C10.8937 7.22812 11.1562 7.33124 11.3625 7.53749L16.5375 12.7125C16.65 12.825 16.7299 12.9469 16.7771 13.0781C16.8236 13.2094 16.8469 13.35 16.8469 13.5C16.8469 13.65 16.8236 13.7906 16.7771 13.9219C16.7299 14.0531 16.65 14.175 16.5375 14.2875L11.3625 19.4625C11.1562 19.6687 10.8937 19.7719 10.575 19.7719C10.2562 19.7719 9.99374 19.6687 9.78749 19.4625Z" fill="white"/>
</svg>
