<svg width="25" height="25" viewBox="0 0 25 25" fill="none" xmlns="http://www.w3.org/2000/svg">
<circle cx="12.5" cy="12.5" r="7.5" fill="white"/>
<path d="M11.0417 14.375L8.77605 12.1094C8.58508 11.9184 8.35071 11.8229 8.07293 11.8229C7.79515 11.8229 7.55209 11.9271 7.34376 12.1354C7.15279 12.3264 7.0573 12.5694 7.0573 12.8646C7.0573 13.1597 7.15279 13.4028 7.34376 13.5938L10.3125 16.5625C10.5035 16.7535 10.7465 16.849 11.0417 16.849C11.3368 16.849 11.5799 16.7535 11.7708 16.5625L17.6823 10.651C17.8733 10.4601 17.9688 10.2257 17.9688 9.94792C17.9688 9.67014 17.8646 9.42709 17.6563 9.21875C17.4653 9.02778 17.2222 8.93229 16.9271 8.93229C16.632 8.93229 16.3889 9.02778 16.1979 9.21875L11.0417 14.375ZM12.5 22.9167C11.059 22.9167 9.70487 22.6431 8.43751 22.0958C7.17015 21.5493 6.06772 20.8073 5.13022 19.8698C4.19272 18.9323 3.4507 17.8299 2.90418 16.5625C2.35695 15.2951 2.08334 13.941 2.08334 12.5C2.08334 11.059 2.35695 9.70486 2.90418 8.4375C3.4507 7.17014 4.19272 6.06771 5.13022 5.13021C6.06772 4.19271 7.17015 3.45035 8.43751 2.90313C9.70487 2.3566 11.059 2.08334 12.5 2.08334C13.941 2.08334 15.2951 2.3566 16.5625 2.90313C17.8299 3.45035 18.9323 4.19271 19.8698 5.13021C20.8073 6.06771 21.5493 7.17014 22.0958 8.4375C22.6431 9.70486 22.9167 11.059 22.9167 12.5C22.9167 13.941 22.6431 15.2951 22.0958 16.5625C21.5493 17.8299 20.8073 18.9323 19.8698 19.8698C18.9323 20.8073 17.8299 21.5493 16.5625 22.0958C15.2951 22.6431 13.941 22.9167 12.5 22.9167Z" fill="#BE9241"/>
</svg>
