<svg width="11" height="7" viewBox="0 0 11 7" fill="none" xmlns="http://www.w3.org/2000/svg">
<path d="M0.420838 0.3375C0.596533 0.161806 0.820143 0.0739589 1.09167 0.0739589C1.3632 0.0739589 1.58681 0.161806 1.7625 0.3375L5.5 4.075L9.2375 0.337501C9.4132 0.161806 9.63681 0.0739593 9.90834 0.0739593C10.1799 0.0739593 10.4035 0.161806 10.5792 0.337501C10.7549 0.513195 10.8427 0.736806 10.8427 1.00833C10.8427 1.27986 10.7549 1.50347 10.5792 1.67917L6.17084 6.0875C6.075 6.18333 5.97118 6.25138 5.85938 6.29163C5.74757 6.33124 5.62778 6.35104 5.5 6.35104C5.37223 6.35104 5.25243 6.33124 5.14063 6.29163C5.02882 6.25138 4.925 6.18333 4.82917 6.0875L0.420838 1.67917C0.245144 1.50347 0.157295 1.27986 0.157295 1.00833C0.157295 0.736806 0.245144 0.513195 0.420838 0.3375Z" fill="#3F3D56"/>
</svg>
