<svg width="35" height="35" viewBox="0 0 35 35" fill="none" xmlns="http://www.w3.org/2000/svg">
<path d="M15.3125 24.0034C14.5542 23.9193 13.8083 23.7468 13.09 23.4894C13.1119 22.9731 13.125 22.435 13.125 21.875V21.1378C13.8031 21.4616 14.5403 21.6869 15.3125 21.7984V16.4062C15.3125 15.536 15.6582 14.7014 16.2736 14.086C16.8889 13.4707 17.7235 13.125 18.5938 13.125H23.9859C23.8115 11.9129 23.3488 10.7603 22.6368 9.76395C21.9247 8.76762 20.9841 7.95663 19.8938 7.39905C18.8035 6.84146 17.5953 6.55355 16.3707 6.55948C15.1461 6.56541 13.9408 6.865 12.8559 7.43312C12.6829 6.71766 12.3979 6.03402 12.0116 5.40749C13.4297 4.69967 14.9977 4.34473 16.5824 4.37285C18.167 4.40097 19.7215 4.81131 21.1136 5.56899C22.5057 6.32667 23.6942 7.40928 24.5782 8.72479C25.4622 10.0403 26.0154 11.5498 26.1909 13.125H29.5312C30.4015 13.125 31.2361 13.4707 31.8514 14.086C32.4668 14.7014 32.8125 15.536 32.8125 16.4062V27.3437C32.8125 28.214 32.4668 29.0486 31.8514 29.6639C31.2361 30.2793 30.4015 30.625 29.5312 30.625H18.5938C17.7235 30.625 16.8889 30.2793 16.2736 29.6639C15.6582 29.0486 15.3125 28.214 15.3125 27.3437V24.0034ZM26.1909 15.3125C25.9424 17.5319 24.9469 19.601 23.3677 21.1802C21.7885 22.7593 19.7194 23.7549 17.5 24.0034V27.3437C17.5 27.6338 17.6152 27.912 17.8204 28.1171C18.0255 28.3223 18.3037 28.4375 18.5938 28.4375H29.5312C29.8213 28.4375 30.0995 28.3223 30.3046 28.1171C30.5098 27.912 30.625 27.6338 30.625 27.3437V16.4062C30.625 16.1162 30.5098 15.838 30.3046 15.6328C30.0995 15.4277 29.8213 15.3125 29.5312 15.3125H26.1909ZM23.9859 15.3125H18.5938C18.3037 15.3125 18.0255 15.4277 17.8204 15.6328C17.6152 15.838 17.5 16.1162 17.5 16.4062V21.7984C19.1362 21.5619 20.652 20.8025 21.821 19.6335C22.99 18.4645 23.7494 16.9487 23.9859 15.3125ZM10.4891 16.5397C10.2594 15.6953 9.8875 14.8487 9.24875 14.1991C10.2812 13.2212 10.9375 11.6637 10.9375 9.84374C10.9375 8.31905 10.6291 7.27124 10.0712 6.43343C9.82374 6.07309 9.53767 5.74081 9.21813 5.44249C9.09566 5.32425 8.97169 5.20758 8.84625 5.09249C8.71281 4.9678 8.59031 4.85405 8.43062 4.69436C8.1025 4.36624 8.06531 4.10374 8.06531 3.96593C8.06568 3.88933 8.07823 3.81327 8.1025 3.74062C8.20251 3.52433 8.22916 3.2813 8.17838 3.04848C8.1276 2.81566 8.00217 2.60579 7.82118 2.4508C7.64018 2.2958 7.41352 2.20415 7.17566 2.18979C6.93781 2.17543 6.70177 2.23914 6.50344 2.37124L6.49906 2.37343L6.4925 2.3778L6.47281 2.39093L6.40719 2.43468C6.07906 2.66872 5.76293 2.91914 5.46 3.18499C4.91313 3.66843 4.2 4.38374 3.69469 5.23687C3.25358 5.94415 2.89955 6.70214 2.64031 7.49437C2.37781 8.27968 2.1875 9.13062 2.1875 9.84374C2.1875 11.6637 2.84375 13.2191 3.87625 14.2012C3.2375 14.8487 2.86563 15.6953 2.63594 16.5419C2.1875 18.1869 2.1875 20.2212 2.1875 21.7941V21.875C2.1875 26.3769 3.02969 29.05 3.98344 30.6403C4.4625 31.4366 4.96125 31.9506 5.37906 32.2744C5.60169 32.448 5.84398 32.5949 6.10094 32.7119C6.24954 32.7661 6.40481 32.8 6.5625 32.8125C6.74625 32.8125 7.02406 32.7119 7.02406 32.7119C7.28102 32.5949 7.52331 32.448 7.74594 32.2744C8.16156 31.9506 8.66469 31.4366 9.14156 30.6403C10.0953 29.0522 10.9375 26.3769 10.9375 21.875V21.7962C10.9375 20.2212 10.9375 18.1891 10.4891 16.5397ZM5.44031 15.7303C5.6875 15.4809 6.01781 15.3125 6.5625 15.3125C7.10938 15.3125 7.4375 15.4831 7.68469 15.7281C7.96031 16.0059 8.19875 16.4566 8.37812 17.115C8.74125 18.4516 8.75 20.2059 8.75 21.875C8.75 26.1231 7.95156 28.3719 7.26469 29.5159C7.00219 29.9534 6.755 30.2356 6.5625 30.4128C6.28745 30.1483 6.05107 29.8464 5.86031 29.5159C5.17344 28.3697 4.375 26.1231 4.375 21.875C4.375 20.2059 4.38375 18.4516 4.74688 17.115C4.92625 16.4587 5.16469 16.0081 5.44031 15.7303ZM6.5625 13.125C5.72031 13.125 4.375 12.1887 4.375 9.84374C4.375 9.4653 4.48875 8.86593 4.71625 8.1878C4.92357 7.5476 5.20939 6.93554 5.56719 6.36561C5.7575 6.04405 6.00469 5.73124 6.27156 5.44468C6.4225 5.71155 6.62156 5.98062 6.88406 6.24311C7.04375 6.4028 7.25156 6.5953 7.42875 6.76155L7.7 7.0153C7.92969 7.23843 8.10687 7.43312 8.24906 7.64968C8.51156 8.04124 8.75 8.63405 8.75 9.84374C8.75 12.1887 7.40469 13.125 6.5625 13.125Z" fill="white"/>
</svg>
