<svg width="35" height="35" viewBox="0 0 35 35" fill="none" xmlns="http://www.w3.org/2000/svg">
<path fill-rule="evenodd" clip-rule="evenodd" d="M31.2885 7.89835C31.4271 8.10865 31.4888 8.36032 31.4633 8.61087C31.4378 8.86142 31.3266 9.09549 31.1485 9.27356L17.7421 22.6786C17.6049 22.8156 17.4338 22.9138 17.2462 22.9629L11.6623 24.4213C11.4777 24.4694 11.2837 24.4684 11.0997 24.4184C10.9156 24.3685 10.7477 24.2712 10.6129 24.1363C10.478 24.0014 10.3807 23.8336 10.3307 23.6495C10.2807 23.4654 10.2798 23.2715 10.3279 23.0869L11.7862 17.5044C11.8288 17.3368 11.9091 17.1812 12.021 17.0494L25.4771 3.6021C25.6822 3.39727 25.9602 3.28223 26.25 3.28223C26.5398 3.28223 26.8178 3.39727 27.0229 3.6021L31.1485 7.72626C31.2009 7.77877 31.2478 7.83643 31.2885 7.89835ZM28.8283 8.49918L26.25 5.92231L13.8279 18.3444L12.9165 21.8342L16.4062 20.9227L28.8283 8.49918Z" fill="white"/>
<path d="M28.6431 25.025C29.0417 21.6182 29.169 18.1852 29.0237 14.7583C29.0206 14.6776 29.0341 14.5971 29.0635 14.5218C29.0928 14.4465 29.1374 14.3781 29.1944 14.3208L30.6294 12.8858C30.6686 12.8464 30.7183 12.8191 30.7727 12.8073C30.827 12.7954 30.8836 12.7996 30.9357 12.8191C30.9877 12.8387 31.033 12.8728 31.0661 12.9175C31.0993 12.9622 31.1187 13.0155 31.1223 13.071C31.3924 17.1416 31.2899 21.2283 30.816 25.2802C30.4719 28.2289 28.1035 30.5404 25.1679 30.8685C20.0715 31.4329 14.9284 31.4329 9.83208 30.8685C6.89791 30.5404 4.52812 28.2289 4.18395 25.2802C3.57933 20.111 3.57933 14.889 4.18395 9.71977C4.52812 6.77102 6.89645 4.45956 9.83208 4.13144C13.7001 3.70251 17.5973 3.59861 21.4827 3.82081C21.5383 3.8248 21.5916 3.84465 21.6363 3.87799C21.681 3.91134 21.7151 3.95679 21.7348 4.00897C21.7544 4.06114 21.7587 4.11785 21.7471 4.17238C21.7355 4.22691 21.7085 4.27697 21.6694 4.31664L20.2212 5.76331C20.1645 5.81982 20.0968 5.86411 20.0223 5.89346C19.9479 5.9228 19.8681 5.93658 19.7881 5.93393C16.5459 5.82372 13.2999 5.948 10.0756 6.30581C9.13345 6.41009 8.25395 6.82895 7.57918 7.49472C6.90441 8.16049 6.47379 9.03429 6.35687 9.97498C5.77215 14.9746 5.77215 20.0253 6.35687 25.025C6.47379 25.9657 6.90441 26.8395 7.57918 27.5052C8.25395 28.171 9.13345 28.5899 10.0756 28.6941C14.9683 29.241 20.0317 29.241 24.9258 28.6941C25.868 28.5899 26.7475 28.171 27.4223 27.5052C28.097 26.8395 28.5262 25.9657 28.6431 25.025Z" fill="white"/>
</svg>
