<svg width="35" height="35" viewBox="0 0 35 35" fill="none" xmlns="http://www.w3.org/2000/svg">
<path d="M20.6582 22.709C21.2935 22.2279 21.8082 21.6057 22.1618 20.8915C22.5153 20.1773 22.698 19.3907 22.6953 18.5938C22.6953 17.2159 22.148 15.8944 21.1736 14.9201C20.1993 13.9458 18.8779 13.3984 17.5 13.3984C16.1221 13.3984 14.8007 13.9458 13.8264 14.9201C12.852 15.8944 12.3047 17.2159 12.3047 18.5938C12.302 19.3907 12.4847 20.1773 12.8382 20.8915C13.1918 21.6057 13.7065 22.2279 14.3418 22.709C12.7258 23.3183 11.3172 24.376 10.2812 25.7578C10.1507 25.9319 10.0947 26.1506 10.1254 26.366C10.1562 26.5814 10.2713 26.7757 10.4453 26.9062C10.6194 27.0368 10.8381 27.0928 11.0535 27.0621C11.2689 27.0313 11.4632 26.9162 11.5938 26.7422C12.2814 25.8253 13.1732 25.0811 14.1983 24.5685C15.2234 24.0559 16.3539 23.7891 17.5 23.7891C18.6461 23.7891 19.7766 24.0559 20.8017 24.5685C21.8268 25.0811 22.7186 25.8253 23.4062 26.7422C23.5368 26.9162 23.7311 27.0313 23.9465 27.0621C24.1619 27.0928 24.3806 27.0368 24.5547 26.9062C24.6409 26.8416 24.7135 26.7606 24.7684 26.6679C24.8232 26.5752 24.8593 26.4727 24.8746 26.366C24.8898 26.2594 24.8839 26.1508 24.8571 26.0464C24.8304 25.9421 24.7834 25.844 24.7188 25.7578C23.6828 24.376 22.2742 23.3183 20.6582 22.709ZM17.5 15.0391C18.2031 15.0391 18.8903 15.2475 19.4749 15.6381C20.0594 16.0287 20.5151 16.5839 20.7841 17.2334C21.0532 17.883 21.1235 18.5977 20.9864 19.2872C20.8492 19.9768 20.5107 20.6102 20.0135 21.1073C19.5164 21.6044 18.883 21.943 18.1935 22.0801C17.5039 22.2173 16.7892 22.1469 16.1397 21.8779C15.4901 21.6088 14.935 21.1532 14.5444 20.5686C14.1538 19.9841 13.9453 19.2968 13.9453 18.5938C13.9489 17.6521 14.3246 16.75 14.9904 16.0842C15.6563 15.4183 16.5583 15.0427 17.5 15.0391ZM27.3438 3.55469H7.65625C7.14861 3.55469 6.66176 3.75635 6.3028 4.1153C5.94385 4.47426 5.74219 4.96111 5.74219 5.46875V29.5312C5.74219 30.0389 5.94385 30.5257 6.3028 30.8847C6.66176 31.2437 7.14861 31.4453 7.65625 31.4453H27.3438C27.8514 31.4453 28.3382 31.2437 28.6972 30.8847C29.0562 30.5257 29.2578 30.0389 29.2578 29.5312V5.46875C29.2578 4.96111 29.0562 4.47426 28.6972 4.1153C28.3382 3.75635 27.8514 3.55469 27.3438 3.55469ZM27.6172 29.5312C27.6172 29.6038 27.5884 29.6733 27.5371 29.7246C27.4858 29.7759 27.4163 29.8047 27.3438 29.8047H7.65625C7.58373 29.8047 7.51418 29.7759 7.4629 29.7246C7.41162 29.6733 7.38281 29.6038 7.38281 29.5312V5.46875C7.38281 5.39623 7.41162 5.32668 7.4629 5.2754C7.51418 5.22412 7.58373 5.19531 7.65625 5.19531H27.3438C27.4163 5.19531 27.4858 5.22412 27.5371 5.2754C27.5884 5.32668 27.6172 5.39623 27.6172 5.46875V29.5312ZM12.3047 8.75C12.3047 8.53244 12.3911 8.32379 12.545 8.16995C12.6988 8.01611 12.9074 7.92969 13.125 7.92969H21.875C22.0926 7.92969 22.3012 8.01611 22.455 8.16995C22.6089 8.32379 22.6953 8.53244 22.6953 8.75C22.6953 8.96756 22.6089 9.17621 22.455 9.33005C22.3012 9.48389 22.0926 9.57031 21.875 9.57031H13.125C12.9074 9.57031 12.6988 9.48389 12.545 9.33005C12.3911 9.17621 12.3047 8.96756 12.3047 8.75Z" fill="white"/>
</svg>
