<svg width="20" height="15" viewBox="0 0 20 15" fill="none" xmlns="http://www.w3.org/2000/svg">
<path d="M6.6299 12.1913L2.67512 8.2875C2.46202 8.07715 2.173 7.95898 1.87163 7.95898C1.57026 7.95898 1.28124 8.07715 1.06814 8.2875C0.855039 8.49785 0.735321 8.78315 0.735321 9.08063C0.735321 9.22792 0.764713 9.37378 0.821818 9.50986C0.878923 9.64595 0.962622 9.7696 1.06814 9.87375L5.83211 14.5763C6.2766 15.015 6.99461 15.015 7.4391 14.5763L19.4972 2.67375C19.7103 2.4634 19.83 2.17811 19.83 1.88063C19.83 1.58315 19.7103 1.29785 19.4972 1.0875C19.2841 0.877153 18.9951 0.75898 18.6937 0.75898C18.3923 0.75898 18.1033 0.877153 17.8902 1.0875L6.6299 12.1913Z" fill="#3F3D56"/>
</svg>
